HIERARCHY
ROOT Hips
{
	OFFSET 0.000000 0.000000 0.000000
	CHANNELS 6 Xposition Yposition Zposition Xrotation Yrotation Zrotation
	JOINT LeftUpLeg_virtual
	{
		OFFSET 0.000000 0.000000 0.000000
		CHANNELS 3 Xrotation Yrotation Zrotation
		JOINT LeftUpLeg
		{
			OFFSET 10.205400 -3.823500 0.155100
			CHANNELS 3 Xrotation Yrotation Zrotation
			JOINT LeftLeg
			{
				OFFSET 0.708757 -12.982077 0.567790
				CHANNELS 3 Xrotation Yrotation Zrotation
				JOINT LeftFoot
				{
					OFFSET -0.708756 -10.717838 -2.184338
					CHANNELS 3 Xrotation Yrotation Zrotation
					JOINT LeftToeBase
					{
						OFFSET 0.108149 -7.191104 7.560241
						CHANNELS 3 Xrotation Yrotation Zrotation
						JOINT LeftToe_End
						{
							OFFSET 0.070230 0.081724 4.490308
							CHANNELS 3 Xrotation Yrotation Zrotation
							End Site
							{
								OFFSET 0 0 0
							}
						}
					}
				}
			}
		}
	}
	JOINT RightUpLeg_virtual
	{
		OFFSET 0.000000 0.000000 0.000000
		CHANNELS 3 Xrotation Yrotation Zrotation
		JOINT RightUpLeg
		{
			OFFSET -10.205400 -3.823500 0.005500
			CHANNELS 3 Xrotation Yrotation Zrotation
			JOINT RightLeg
			{
				OFFSET -0.708756 -12.982134 0.610632
				CHANNELS 3 Xrotation Yrotation Zrotation
				JOINT RightFoot
				{
					OFFSET 0.708754 -10.717769 -1.945823
					CHANNELS 3 Xrotation Yrotation Zrotation
					JOINT RightToeBase
					{
						OFFSET -0.108140 -7.191069 7.372968
						CHANNELS 3 Xrotation Yrotation Zrotation
						JOINT RightToe_End
						{
							OFFSET -0.070227 0.081735 4.479403
							CHANNELS 3 Xrotation Yrotation Zrotation
							End Site
							{
								OFFSET 0 0 0
							}
						}
					}
				}
			}
		}
	}
	JOINT Spine_virtual
	{
		OFFSET 0.000000 0.000000 0.000000
		CHANNELS 3 Xrotation Yrotation Zrotation
		JOINT Spine
		{
			OFFSET 0.000000 6.876099 0.125700
			CHANNELS 3 Xrotation Yrotation Zrotation
			JOINT Spine1
			{
				OFFSET 0.000000 5.730043 0.104720
				CHANNELS 3 Xrotation Yrotation Zrotation
				JOINT Spine1_split
				{
					OFFSET 0.000000 5.730043 0.104720
					CHANNELS 3 Xrotation Yrotation Zrotation
					JOINT Spine2
					{
						OFFSET 0.000000 5.730043 0.104720
						CHANNELS 3 Xrotation Yrotation Zrotation
						JOINT Neck_virtual
						{
							OFFSET 0.000000 0.000000 0.000000
							CHANNELS 3 Xrotation Yrotation Zrotation
							JOINT Neck
							{
								OFFSET 0.000000 10.314075 0.188496
								CHANNELS 3 Xrotation Yrotation Zrotation
								JOINT Head
								{
									OFFSET 0.000000 7.643700 -2.377400
									CHANNELS 3 Xrotation Yrotation Zrotation
									JOINT HeadTop_End
									{
										OFFSET 0.000000 43.788605 -13.619600
										CHANNELS 3 Xrotation Yrotation Zrotation
										End Site
										{
											OFFSET 0 0 0
										}
									}
								}
							}
						}
						JOINT LeftShoulder_virtual
						{
							OFFSET 0.000000 0.000000 0.000000
							CHANNELS 3 Xrotation Yrotation Zrotation
							JOINT LeftShoulder
							{
								OFFSET 2.196100 4.412489 0.087492
								CHANNELS 3 Xrotation Yrotation Zrotation
								JOINT LeftShoulder_split
								{
									OFFSET 2.196100 4.412489 0.087492
									CHANNELS 3 Xrotation Yrotation Zrotation
									JOINT LeftArm
									{
										OFFSET 8.771219 -2.981674 -0.026999
										CHANNELS 3 Xrotation Yrotation Zrotation
										JOINT LeftForeArm
										{
											OFFSET 8.512804 0.000000 -0.000000
											CHANNELS 3 Xrotation Yrotation Zrotation
											JOINT LeftHand
											{
												OFFSET 18.484802 0.000000 -0.000000
												CHANNELS 3 Xrotation Yrotation Zrotation
												End Site
												{
													OFFSET 0 0 0
												}
											}
										}
									}
								}
							}
						}
						JOINT RightShoulder_virtual
						{
							OFFSET 0.000000 0.000000 0.000000
							CHANNELS 3 Xrotation Yrotation Zrotation
							JOINT RightShoulder
							{
								OFFSET -2.196100 4.412496 0.070690
								CHANNELS 3 Xrotation Yrotation Zrotation
								JOINT RightShoulder_split
								{
									OFFSET -2.196100 4.412496 0.070690
									CHANNELS 3 Xrotation Yrotation Zrotation
									JOINT RightArm
									{
										OFFSET -8.771282 -2.981682 -0.094208
										CHANNELS 3 Xrotation Yrotation Zrotation
										JOINT RightForeArm
										{
											OFFSET -8.494598 0.000000 0.000000
											CHANNELS 3 Xrotation Yrotation Zrotation
											JOINT RightHand
											{
												OFFSET -18.483803 0.000000 0.000001
												CHANNELS 3 Xrotation Yrotation Zrotation
												End Site
												{
													OFFSET 0 0 0
												}
											}
										}
									}
								}
							}
						}
					}
				}
			}
		}
	}
}
MOTION
Frames: 10
Frame Time: 0.03333333
0.200854 29.552206 0.902126 0.000000 0.000000 0.000000 7.696100 -57.227628 9.238767 -33.064447 7.332645 30.368455 39.603670 -7.376133 -8.763694 -12.155669 -3.290821 -14.397714 2.717762 0.377153 -0.659663 0.000000 0.000000 0.000000 8.209569 -58.472894 9.971239 -26.915354 -7.346044 -33.862504 44.596921 5.468262 -6.259862 -22.317720 -2.721896 23.081781 4.857049 0.224366 -0.715580 0.000000 0.000000 0.000000 9.918144 -53.887980 10.428921 9.288752 -2.152383 -1.626776 8.512570 0.572592 -5.859277 -0.528361 -4.499149 0.976560 0.000000 0.000000 0.000000 8.430155 0.947673 -4.704197 -15.333664 26.824796 6.159603 -3.565784 35.578182 -6.558329 0.000000 0.000000 0.000000 8.497571 1.059991 -5.522878 -5.849912 -10.279675 -1.591653 -5.897803 1.020781 -4.239691 -19.154031 -1.113703 -33.304122 3.229398 -34.988208 8.196137 0.000000 0.000000 0.000000 8.942473 1.113536 -5.340338 -2.740590 11.709333 -4.011651 1.842454 -4.144332 8.617802 -44.111667 -20.494408 33.577114 -152.836534 66.981056 150.853074 0.000000 0.000000 0.000000 
0.321575 29.510361 0.681759 0.000000 0.000000 0.000000 8.056957 -57.238392 9.787813 -32.685081 7.422349 29.590193 39.208950 -6.323730 -9.135515 -12.871121 -2.967808 -13.489274 2.792547 0.360396 -1.023164 0.000000 0.000000 0.000000 8.588489 -58.852994 10.594785 -27.142805 -7.412981 -34.319132 44.606552 5.767555 -6.188028 -22.246158 -2.623519 22.600539 4.301744 -0.094399 -0.283238 0.000000 0.000000 0.000000 10.249463 -53.782419 10.860365 9.230729 -1.937635 -1.570270 8.387083 0.567939 -5.841917 -0.470146 -4.200645 1.388707 0.000000 0.000000 0.000000 8.499686 0.897482 -4.605810 -15.249354 27.333616 6.205179 -2.967864 35.097439 -6.549636 0.000000 0.000000 0.000000 8.565902 1.027654 -5.460396 -5.822583 -10.373527 -1.876460 -6.841214 0.625447 -4.872915 -18.721607 -1.051595 -33.998277 3.169752 -36.406568 7.868147 0.000000 0.000000 0.000000 8.822311 1.023364 -5.117703 -2.116456 12.391346 -3.664372 1.327796 -4.382838 6.921449 -44.100793 -22.870906 32.787975 -150.346411 68.356178 148.430174 0.000000 0.000000 0.000000 
0.449462 29.480682 0.425688 0.000000 0.000000 0.000000 8.211994 -57.808290 10.444980 -32.063896 8.150147 28.944071 38.801099 -5.161667 -9.648500 -13.530543 -2.793812 -13.595395 2.874567 0.310725 -1.112377 0.000000 0.000000 0.000000 8.573459 -59.599090 11.209896 -27.473809 -7.719382 -35.186642 44.504847 6.767242 -5.860217 -22.223521 -2.470406 22.443957 4.089451 -0.349261 -0.166726 0.000000 0.000000 0.000000 9.960073 -54.035259 11.040806 9.466997 -1.579566 -1.555745 8.486107 0.640427 -5.755302 -0.158651 -3.478027 1.438289 0.000000 0.000000 0.000000 8.627006 0.989097 -4.533202 -16.034110 27.598064 7.217598 -1.834691 34.513383 -6.753553 0.000000 0.000000 0.000000 8.730081 1.053375 -5.337964 -5.832478 -10.800301 -2.239138 -7.467232 -0.337196 -5.348314 -18.900296 1.248202 -35.071341 3.487003 -38.374776 6.862445 0.000000 0.000000 0.000000 8.759056 1.017243 -4.849100 -1.230818 12.864871 -3.023652 0.330561 -3.680970 5.393848 -44.694880 -24.427121 30.274660 -142.640018 69.597975 141.308199 0.000000 0.000000 0.000000 
0.547994 29.494068 0.287235 0.000000 0.000000 0.000000 8.255521 -59.075952 11.265976 -31.362910 9.466038 28.461608 38.663109 -3.980790 -10.206675 -14.123358 -2.705736 -14.710609 3.189881 0.248504 -0.912732 0.000000 0.000000 0.000000 8.329917 -60.868679 11.845222 -27.884556 -8.097668 -36.414423 44.301563 8.328491 -5.232698 -22.025931 -2.132242 22.748585 3.975331 -0.517914 -0.367760 0.000000 0.000000 0.000000 9.267666 -54.931540 11.138134 9.950589 -1.114626 -1.568102 8.789515 0.801283 -5.560125 0.141465 -2.713078 1.240974 0.000000 0.000000 0.000000 8.812753 1.207589 -4.427756 -17.326880 27.582776 8.747191 -0.105380 34.007727 -7.318708 0.000000 0.000000 0.000000 8.970730 1.159906 -5.113269 -5.916958 -11.563089 -2.875190 -7.963761 -1.520503 -5.463473 -19.063751 5.266017 -36.135884 4.191721 -40.575466 5.364445 0.000000 0.000000 0.000000 8.833717 1.106826 -4.548167 -0.150954 13.270344 -2.261219 -0.888569 -2.752587 4.162255 -45.540986 -24.540006 26.130644 -130.351975 69.918420 130.059274 0.000000 0.000000 0.000000 
0.596705 29.528336 0.317717 0.000000 0.000000 0.000000 8.339252 -61.307812 12.347745 -30.693695 11.145019 28.056875 39.035200 -2.709318 -10.717915 -14.835116 -2.490098 -16.356351 3.820728 0.208318 -0.546441 0.000000 0.000000 0.000000 7.925736 -62.892006 12.529545 -28.483610 -8.237593 -37.784559 43.799302 10.282843 -4.373921 -21.610263 -1.560812 23.398896 3.379766 -0.584479 -0.782387 0.000000 0.000000 0.000000 8.218391 -56.693989 11.246339 10.555793 -0.578638 -1.549008 9.249492 1.045132 -5.167309 0.430402 -2.042223 1.034090 0.000000 0.000000 0.000000 9.082958 1.513653 -4.196792 -18.504992 27.402254 10.348575 2.226246 33.799659 -8.467748 0.000000 0.000000 0.000000 9.356723 1.338994 -4.690363 -6.126139 -12.660708 -3.904297 -8.158263 -2.252995 -5.513379 -18.767191 9.877989 -36.807866 5.541570 -43.054138 3.746207 0.000000 0.000000 0.000000 9.096595 1.271148 -4.156380 1.013699 13.700682 -1.674197 -1.852335 -2.367969 3.026381 -46.008738 -22.676547 20.689790 -115.497160 68.808610 116.544611 0.000000 0.000000 0.000000 
0.581436 29.582733 0.561100 0.000000 0.000000 0.000000 8.623379 -64.445738 13.743235 -30.037980 12.903595 27.631100 40.002949 -1.247392 -11.135023 -16.043286 -1.969119 -17.869214 4.420180 0.219980 -0.124605 0.000000 0.000000 0.000000 7.701830 -65.589897 13.431543 -29.288401 -7.840080 -39.037963 42.908447 12.386295 -3.442372 -21.268115 -0.827841 24.052378 2.184663 -0.570964 -1.164925 0.000000 0.000000 0.000000 6.912045 -59.427926 11.432224 11.113087 -0.018934 -1.425280 9.823222 1.338038 -4.525653 0.534825 -1.438083 0.971819 0.000000 0.000000 0.000000 9.423033 1.853594 -3.760949 -19.000236 27.327928 11.583643 5.059703 33.954059 -10.335143 0.000000 0.000000 0.000000 9.894355 1.574377 -4.024077 -6.492427 -14.035742 -5.357991 -7.826112 -2.603207 -5.423165 -17.519807 14.006973 -36.802483 8.015249 -45.975226 2.730110 0.000000 0.000000 0.000000 9.562879 1.463534 -3.634016 2.254340 14.342154 -1.550671 -2.773713 -3.111807 2.168003 -45.137148 -18.910029 14.515535 -99.255838 66.302750 101.826106 0.000000 0.000000 0.000000 
0.544795 29.632584 0.943943 0.000000 0.000000 0.000000 9.425160 -68.295499 15.679304 -29.502227 14.381766 27.134197 41.754316 0.380439 -11.465520 -17.745723 -1.138918 -18.652939 4.684253 0.283453 0.247657 0.000000 0.000000 0.000000 7.984363 -68.765532 14.758060 -30.169325 -6.689950 -39.939490 42.142919 14.408132 -2.562290 -21.127346 -0.030877 24.136466 1.044847 -0.510817 -1.298092 0.000000 0.000000 0.000000 5.672083 -62.900626 11.884153 11.472397 0.515028 -1.119924 10.439808 1.603779 -3.618252 0.455308 -0.974146 1.019044 0.000000 0.000000 0.000000 9.828720 2.129466 -3.066966 -18.532212 27.484610 12.310470 8.087976 34.439245 -12.912303 0.000000 0.000000 0.000000 10.544619 1.787333 -3.125593 -6.931032 -15.675204 -7.021351 -6.563052 -2.505059 -5.028343 -15.348951 17.087067 -36.018572 12.384560 -49.108288 3.254590 0.000000 0.000000 0.000000 10.195043 1.622792 -2.904456 3.553403 15.193428 -2.227430 -3.197793 -4.632991 1.734646 -42.634461 -13.643492 8.436397 -83.304887 62.318919 87.293704 0.000000 0.000000 0.000000 
0.474883 29.626545 1.363146 0.000000 0.000000 0.000000 10.990074 -72.390306 18.353154 -29.288080 15.356591 26.596084 44.393388 2.061624 -11.799152 -19.830233 -0.225571 -18.219171 4.451969 0.365386 0.497304 0.000000 0.000000 0.000000 9.108755 -72.099327 16.814071 -31.133153 -4.780471 -40.395877 41.884971 16.194100 -1.907988 -21.031884 0.683774 23.610939 0.336421 -0.426013 -1.054138 0.000000 0.000000 0.000000 4.804932 -66.743434 12.690058 11.592434 0.961171 -0.595122 11.050826 1.744385 -2.486613 0.377437 -0.961300 1.074889 0.000000 0.000000 0.000000 10.307728 2.229330 -2.088560 -17.041197 27.966309 12.550295 11.166599 35.293640 -16.154359 0.000000 0.000000 0.000000 11.247675 1.860276 -2.061808 -7.391054 -17.441411 -8.443425 -4.345245 -1.830097 -4.195889 -12.499049 19.127077 -34.466234 19.673622 -52.354486 6.530351 0.000000 0.000000 0.000000 10.920229 1.672990 -1.957763 4.923481 16.146004 -3.864371 -3.450561 -5.988094 1.695355 -39.302432 -7.663246 3.229012 -69.604743 56.871283 74.790462 0.000000 0.000000 0.000000 
0.398861 29.538736 1.777258 0.000000 0.000000 0.000000 13.699104 -75.961204 22.005789 -29.631615 15.705513 26.133912 47.721200 3.519013 -12.200857 -21.934809 0.479508 -16.754186 3.823028 0.437354 0.603391 0.000000 0.000000 0.000000 11.663518 -75.157516 20.057728 -32.186727 -2.336192 -40.370257 42.323189 17.685035 -1.709119 -20.892939 1.153341 23.242630 -0.442797 -0.397898 -0.574512 0.000000 0.000000 0.000000 4.928537 -70.503870 14.184379 11.524195 1.247206 0.139587 11.588367 1.616187 -1.247919 0.097787 -1.296177 1.282385 0.000000 0.000000 0.000000 10.811799 2.067715 -0.908233 -14.804555 28.726420 12.582947 14.157598 36.501514 -19.743633 0.000000 0.000000 0.000000 11.907001 1.682903 -0.938008 -7.711988 -19.133699 -9.185041 -2.169533 -0.756669 -3.521453 -9.488131 20.503873 -32.091576 30.715576 -55.058124 13.611963 0.000000 0.000000 0.000000 11.591510 1.483272 -0.850780 6.364498 16.922176 -6.421980 -3.864798 -6.628812 2.202746 -36.368059 -1.702272 -0.416621 -59.209551 50.609970 65.189115 0.000000 0.000000 0.000000 
0.354322 29.373131 2.158829 0.000000 0.000000 0.000000 18.145888 -78.670617 27.130787 -30.827591 15.395402 25.880116 51.544760 4.407793 -12.699404 -23.437651 0.900818 -14.922821 2.981778 0.514689 0.552294 0.000000 0.000000 0.000000 15.968613 -77.554667 24.797644 -33.128122 0.229311 -39.939050 43.313832 18.913029 -2.028615 -20.707462 1.311417 23.742298 -1.584105 -0.443706 -0.128180 0.000000 0.000000 0.000000 6.227410 -73.663112 16.489533 11.348266 1.314825 0.997713 11.965413 1.118513 -0.060411 -0.194213 -1.772925 1.468545 0.000000 0.000000 0.000000 11.284627 1.575893 0.303329 -12.219966 29.581341 12.746249 16.769692 37.973898 -23.403481 0.000000 0.000000 0.000000 12.450514 1.195299 0.140690 -7.714343 -20.539823 -8.869002 0.021644 0.499696 -3.082074 -6.668721 21.444386 -29.010207 45.647599 -56.463173 24.717365 0.000000 0.000000 0.000000 12.110513 0.962559 0.301472 7.741775 17.042965 -9.636243 -4.289571 -6.379015 3.058119 -35.233258 3.784784 -1.986127 -52.221755 44.733556 58.599868 0.000000 0.000000 0.000000 
